<svg width="238" height="61.4" xmlns="http://www.w3.org/2000/svg" xmlns:xlink="http://www.w3.org/1999/xlink">
 <g>
  <title>background</title>
  <rect fill="none" id="canvas_background" height="402" width="582" y="-1" x="-1"/>
 </g>
 <g>
  <title>Layer 1</title>
  <path id="svg_1" d="m63.4,16.7c2.1,-0.4 5,-0.6 9.2,-0.6c4.2,0 7.2,0.8 9.2,2.4c1.9,1.5 3.2,4 3.2,6.9c0,3 -0.9,5.5 -2.7,7.1c-2.3,2.1 -5.8,3.2 -9.8,3.2c-0.9,0 -1.7,0 -2.3,-0.2l0,10.8l-6.7,0l0,-29.6l-0.1,0zm6.7,13.5c0.6,0.1 1.3,0.2 2.3,0.2c3.6,0 5.8,-1.8 5.8,-4.8c0,-2.8 -1.9,-4.4 -5.3,-4.4c-1.4,0 -2.3,0.1 -2.8,0.2l0,8.8z" fill="#ffffff"/>
  <path id="svg_2" d="m86.4,31.6c0,-3.2 0,-5.3 -0.2,-7.2l5.8,0l0.3,4l0.2,0c1.1,-3.2 3.7,-4.5 5.9,-4.5c0.6,0 0.9,0 1.4,0.1l0,6.4c-0.6,-0.1 -1.1,-0.2 -1.9,-0.2c-2.5,0 -4.2,1.3 -4.6,3.4c-0.1,0.4 -0.1,0.9 -0.1,1.5l0,11l-6.8,0l0,-14.5z" fill="#ffffff"/>
  <path id="svg_3" d="m110.6,46.7c-6.4,0 -11.2,-4.2 -11.2,-11.2c0,-7 4.6,-11.5 11.6,-11.5c6.6,0 11.1,4.6 11.1,11.2c-0.1,7.8 -5.7,11.5 -11.5,11.5l0,0zm0.1,-4.9c2.7,0 4.3,-2.6 4.3,-6.5c0,-3.2 -1.2,-6.5 -4.3,-6.5c-3.2,0 -4.4,3.3 -4.4,6.5c0,3.7 1.5,6.5 4.4,6.5l0,0z" fill="#ffffff"/>
  <polygon id="svg_4" points="130.6,16.3 130.6,27.8 141.7,27.8 141.7,16.3 148.5,16.3 148.5,46.2 141.7,46.2 141.7,33.7   130.6,33.7 130.6,46.2 123.8,46.2 123.8,16.3 " fill="#ffffff"/>
  <path id="svg_5" d="m156.7,37.4c0.2,2.8 3,4.2 6.1,4.2c2.3,0 4.2,-0.3 6,-0.9l0.9,4.6c-2.2,0.9 -4.9,1.4 -7.9,1.4c-7.4,0 -11.6,-4.3 -11.6,-11.1c0,-5.5 3.5,-11.6 11,-11.6c7,0 9.7,5.5 9.7,10.8c0,1.2 -0.1,2.2 -0.2,2.7l-14,-0.1zm7.9,-4.6c0,-1.6 -0.7,-4.4 -3.8,-4.4c-2.9,0 -4,2.6 -4.2,4.4l8,0z" fill="#ffffff"/>
  <path id="svg_6" d="m191.2,41c0,2 0.1,4 0.4,5.2l-6.1,0l-0.4,-2.2l-0.1,0c-1.4,1.7 -3.6,2.7 -6.2,2.7c-4.4,0 -7,-3.2 -7,-6.7c0,-5.6 5.1,-8.3 12.7,-8.3l0,-0.3c0,-1.2 -0.6,-2.8 -4,-2.8c-2.2,0 -4.6,0.8 -6,1.6l-1.2,-4.3c1.5,-0.8 4.5,-2 8.4,-2c7.2,0 9.5,4.3 9.5,9.4l0,7.7zm-6.5,-5.1c-3.6,0 -6.3,0.8 -6.3,3.4c0,1.7 1.2,2.6 2.7,2.6c1.6,0 3.1,-1.1 3.5,-2.5c0.1,-0.4 0.1,-0.8 0.1,-1.2l0,-2.3z" fill="#ffffff"/>
  <rect id="svg_7" height="31.5" width="6.8" fill="#ffffff" y="14.7" x="193.1"/>
  <path id="svg_8" d="m211,18.6l0,5.9l4.8,0l0,5l-4.8,0l0,7.9c0,2.6 0.7,3.8 2.7,3.8c0.9,0 1.4,0 2,-0.2l0,5.1c-0.8,0.3 -2.5,0.6 -4.4,0.6c-2.2,0 -4,-0.8 -5.1,-1.9c-1.2,-1.3 -1.9,-3.4 -1.9,-6.4l0,-8.9l-2.9,0l0,-5l2.9,0l0,-4.1l6.7,-1.8z" fill="#ffffff"/>
  <path id="svg_9" d="m217.1,14.7l6.8,0l0,12.4l0.1,0c0.7,-1 1.6,-1.7 2.7,-2.3c1,-0.5 2.3,-0.8 3.5,-0.8c4.3,0 7.6,3 7.6,9.5l0,12.7l-6.8,0l0,-12c0,-2.8 -1,-4.8 -3.5,-4.8c-1.8,0 -2.9,1.2 -3.4,2.4c-0.2,0.4 -0.2,1 -0.2,1.5l0,12.9l-6.8,0l0,-31.5z" fill="#ffffff"/>
  <polygon id="svg_10" points="179.3,49.4 179.3,52.3 182.7,52.3 182.7,49.4 183.6,49.4 183.6,56.3 182.7,56.3 182.7,53 179.3,53   179.3,56.3 178.4,56.3 178.4,49.4 " fill="#ffffff"/>
  <path id="svg_11" d="m187.1,56.4c-1.3,0 -2.4,-1 -2.4,-2.5c0,-1.7 1.1,-2.6 2.4,-2.6c1.4,0 2.4,1 2.4,2.5c0.1,1.8 -1.2,2.6 -2.4,2.6l0,0zm0,-0.7c0.9,0 1.5,-0.8 1.5,-1.9c0,-0.8 -0.4,-1.9 -1.5,-1.9c-1,0 -1.5,1 -1.5,1.9c0,1.1 0.7,1.9 1.5,1.9l0,0z" fill="#ffffff"/>
  <path id="svg_12" d="m190.7,52.7c0,-0.5 0,-0.9 0,-1.3l0.8,0l0,0.8l0,0c0.3,-0.5 0.7,-0.9 1.6,-0.9c0.7,0 1.2,0.4 1.4,1l0,0c0.2,-0.3 0.4,-0.5 0.6,-0.6c0.3,-0.2 0.6,-0.3 1.1,-0.3c0.7,0 1.6,0.4 1.6,2.1l0,2.9l-0.9,0l0,-2.8c0,-1 -0.4,-1.5 -1.1,-1.5c-0.5,0 -0.9,0.4 -1.1,0.8c0,0.1 -0.1,0.3 -0.1,0.4l0,3.1l-0.9,0l0,-3c0,-0.8 -0.3,-1.4 -1,-1.4c-0.5,0 -1,0.4 -1.1,0.9c0,0.1 -0.1,0.3 -0.1,0.4l0,3l-0.9,0l0,-3.6l0.1,0z" fill="#ffffff"/>
  <path id="svg_13" d="m199.7,54c0,1.2 0.8,1.7 1.7,1.7c0.6,0 1,-0.1 1.4,-0.2l0.2,0.6c-0.3,0.1 -0.9,0.3 -1.7,0.3c-1.5,0 -2.4,-1 -2.4,-2.5c0,-1.5 0.9,-2.7 2.3,-2.7c1.6,0 2,1.4 2,2.3c0,0.2 0,0.3 0,0.4l-3.5,0.1zm2.7,-0.7c0,-0.6 -0.2,-1.5 -1.2,-1.5c-0.9,0 -1.3,0.8 -1.4,1.5l2.6,0z" fill="#ffffff"/>
  <path id="svg_14" d="m207.9,56.1c-0.2,0.1 -0.8,0.3 -1.4,0.3c-1.5,0 -2.5,-1 -2.5,-2.5c0,-1.5 1,-2.6 2.7,-2.6c0.5,0 1,0.1 1.2,0.3l-0.2,0.7c-0.2,-0.1 -0.6,-0.2 -1,-0.2c-1.1,0 -1.7,0.8 -1.7,1.9c0,1.1 0.7,1.8 1.7,1.8c0.5,0 0.8,-0.1 1.1,-0.2l0.1,0.5z" fill="#ffffff"/>
  <path id="svg_15" d="m212.4,55.1c0,0.4 0,0.8 0.1,1.2l-0.8,0l-0.1,-0.6l0,0c-0.3,0.4 -0.8,0.7 -1.5,0.7c-1,0 -1.5,-0.7 -1.5,-1.4c0,-1.2 1.1,-1.8 3,-1.8l0,-0.2c0,-0.4 -0.1,-1.2 -1.1,-1.1c-0.5,0 -0.9,0.1 -1.3,0.4l-0.2,-0.6c0.4,-0.3 1,-0.4 1.6,-0.4c1.5,0 1.9,1 1.9,2l0,1.8l-0.1,0zm-0.9,-1.3c-1,0 -2.1,0.2 -2.1,1.1c0,0.6 0.4,0.9 0.8,0.9c0.7,0 1.1,-0.4 1.2,-0.8c0,-0.1 0,-0.2 0,-0.3l0,-0.9l0.1,0z" fill="#ffffff"/>
  <path id="svg_16" d="m213.8,52.9c0,-0.6 0,-1.1 0,-1.5l0.8,0l0,1l0,0c0.2,-0.7 0.8,-1.1 1.4,-1.1c0.1,0 0.2,0 0.2,0l0,0.8c-0.1,0 -0.2,0 -0.3,0c-0.6,0 -1.1,0.5 -1.2,1.1c0,0.1 0,0.3 0,0.4l0,2.6l-0.9,0l0,-3.3z" fill="#ffffff"/>
  <path id="svg_17" d="m217.6,54c0,1.2 0.8,1.7 1.7,1.7c0.6,0 1,-0.1 1.4,-0.2l0.2,0.6c-0.3,0.1 -0.9,0.3 -1.7,0.3c-1.5,0 -2.4,-1 -2.4,-2.5c0,-1.5 0.9,-2.7 2.3,-2.7c1.6,0 2,1.4 2,2.3c0,0.2 0,0.3 0,0.4l-3.5,0.1zm2.7,-0.7c0,-0.6 -0.2,-1.5 -1.2,-1.5c-0.9,0 -1.3,0.8 -1.4,1.5l2.6,0z" fill="#ffffff"/>
  <rect id="svg_18" height="6.9" width="0.9" fill="#ffffff" y="49.4" x="224.4"/>
  <path id="svg_19" d="m226.8,52.7c0,-0.5 0,-0.9 0,-1.3l0.8,0l0.1,0.8l0,0c0.2,-0.5 0.8,-0.9 1.6,-0.9c0.7,0 1.7,0.4 1.7,2.1l0,2.9l-0.9,0l0,-2.8c0,-0.8 -0.3,-1.5 -1.1,-1.5c-0.6,0 -1,0.4 -1.2,0.9c0,0.1 -0.1,0.3 -0.1,0.4l0,3l-0.9,0l0,-3.6z" fill="#ffffff"/>
  <path id="svg_20" d="m236,56.1c-0.2,0.1 -0.8,0.3 -1.4,0.3c-1.5,0 -2.5,-1 -2.5,-2.5c0,-1.5 1,-2.6 2.7,-2.6c0.5,0 1,0.1 1.2,0.3l-0.2,0.7c-0.2,-0.1 -0.6,-0.2 -1,-0.2c-1.1,0 -1.7,0.8 -1.7,1.9c0,1.1 0.7,1.8 1.7,1.8c0.5,0 0.8,-0.1 1.1,-0.2l0.1,0.5z" fill="#ffffff"/>
  <g id="svg_21">
   <defs fill="#ffffff">
    <rect fill="#ffffff" height="62.2" width="238" y="-0.8" id="SVGID_1_"/>
   </defs>
   <clipPath fill="#ffffff" id="SVGID_2_">
    <use fill="#ffffff" id="svg_22" xlink:href="#SVGID_1_"/>
   </clipPath>
   <path id="svg_23" d="m237.4,56.4c-0.3,0 -0.6,-0.3 -0.6,-0.6c0,-0.4 0.3,-0.6 0.6,-0.6c0.4,0 0.6,0.3 0.6,0.6c0,0.3 -0.2,0.6 -0.6,0.6l0,0z" fill="#ffffff" clip-path="url(#SVGID_2_)"/>
   <path id="svg_24" d="m59,30.5c-2.8,-12.8 -18.2,-20.4 -34.4,-16.9c-16.1,3.6 -27,16.9 -24.2,29.7c2.7,12.2 16.6,19.6 31.8,17.3c-7.8,-0.4 -14.4,-6.3 -15.4,-14.4c-1.1,-9 5.3,-17.1 14.3,-18.2c9,-1.1 17.1,5.3 18.2,14.3c0.7,6.1 -1.9,11.7 -6.5,15.1c11.6,-5.4 18.6,-16.3 16.2,-26.9" fill="#ffffff" clip-path="url(#SVGID_2_)"/>
   <path id="svg_25" d="m58.3,31.3c-2.7,-12.4 -17.7,-19.8 -33.4,-16.3c-15.8,3.4 -26.3,16.3 -23.6,28.8c2.6,11.8 16.1,19 30.8,16.8c-7.6,-0.4 -14,-6.2 -15,-14c-0.9,-8.6 5.3,-16.6 14,-17.6c8.7,-1.1 16.7,5.1 17.7,13.9c0.7,5.9 -1.9,11.4 -6.3,14.7c11.2,-5.4 18,-16 15.8,-26.3" fill="#ffffff" clip-path="url(#SVGID_2_)"/>
  </g>
  <path id="svg_26" d="m38,12c0.9,7.5 -4.4,14.3 -11.9,15.2c-7.5,0.9 -14.3,-4.4 -15.2,-11.9c-1,-7.5 4.3,-14.3 11.8,-15.2c7.6,-0.9 14.4,4.4 15.3,11.9" fill="#0B80C1"/>
  <g id="svg_27">
   <defs transform="translate(0,-0.3333320617675781) " stroke="#35384c" fill="#ffffff">
    <rect stroke="#35384c" fill="#ffffff" height="62.2" width="238" y="-0.8" id="SVGID_3_"/>
   </defs>
   <clipPath transform="translate(0,-0.3333320617675781) " stroke="#35384c" fill="#ffffff" id="SVGID_4_">
    <use x="0" y="-0.33333" stroke="#35384c" fill="#ffffff" id="svg_28" xlink:href="#SVGID_3_"/>
   </clipPath>
   <path id="svg_29" d="m38,11.66667c0.9,7.5 -4.4,14.3 -11.9,15.2c-7.5,0.9 -14.3,-4.4 -15.2,-11.9c-1,-7.5 4.3,-14.3 11.8,-15.2c7.6,-0.9 14.4,4.4 15.3,11.9" stroke-width="1.636" stroke="#35384c" fill="#ffffff" clip-path="url(#SVGID_4_)"/>
  </g>
  <path id="svg_30" d="m32.1,34.7c0.9,7 -4.1,13.3 -11.1,14.2c-7,0.9 -13.3,-4.1 -14.2,-11.1c-0.9,-7 4.1,-13.3 11.1,-14.2c7,-0.9 13.3,4.1 14.2,11.1" fill="#0B80C1"/>
  <path id="svg_31" d="m32.1,34.7c0.9,7 -4.1,13.3 -11.1,14.2c-7,0.9 -13.3,-4.1 -14.2,-11.1c-0.9,-7 4.1,-13.3 11.1,-14.2c7,-0.9 13.3,4.1 14.2,11.1" stroke-width="1.636" stroke="#35384c" fill="#ffffff"/>
  <path id="svg_32" d="m42,49.2c0.6,5.1 -3,9.8 -8.1,10.4c-5.1,0.6 -9.8,-3 -10.4,-8.1c-0.6,-5.1 3,-9.8 8.1,-10.4c5.1,-0.6 9.8,3 10.4,8.1" fill="#0B80C1"/>
  <g id="svg_33">
   <defs fill="#ffffff" stroke="#35384c">
    <rect fill="#ffffff" stroke="#35384c" height="62.2" width="238" y="-0.8" id="SVGID_5_"/>
   </defs>
   <clipPath fill="#ffffff" stroke="#35384c" id="SVGID_6_">
    <use fill="#ffffff" stroke="#35384c" id="svg_34" xlink:href="#SVGID_5_"/>
   </clipPath>
   <path id="svg_35" d="m42,49.2c0.6,5.1 -3,9.8 -8.1,10.4c-5.1,0.6 -9.8,-3 -10.4,-8.1c-0.6,-5.1 3,-9.8 8.1,-10.4c5.1,-0.6 9.8,3 10.4,8.1" stroke-width="1.636" stroke="#35384c" fill="#ffffff" clip-path="url(#SVGID_6_)"/>
  </g>
 </g>
</svg>